<svg aria-hidden="true" style="position:absolute;width:0;height:0" xmlns="http://www.w3.org/2000/svg" overflow="hidden">
    <defs>
        <symbol id="magnifying-glass" viewBox="0 0 30 30"><path d="M29.784,26.394 L25.103,21.831 C25.056,21.785 24.995,21.764 24.943,21.727 C29.501,16.417 28.792,8.956 23.676,3.969 C21.055,1.414 17.571,0.006 13.865,0.006 C10.158,0.006 6.673,1.414 4.053,3.969 C-1.358,9.244 -1.358,17.827 4.053,23.101 C6.673,25.657 10.158,27.065 13.865,27.065 C17.155,27.065 19.831,26.323 22.322,24.285 C22.361,24.336 22.381,24.394 22.428,24.441 L26.726,28.630 C26.975,28.873 27.301,28.995 27.627,28.995 C27.953,28.995 29.099,28.873 29.347,28.630 C29.845,28.145 30.282,26.879 29.784,26.394 ZM13.865,23.834 C7.538,23.834 3.588,19.596 3.526,13.649 C3.460,7.397 7.666,3.397 13.865,3.397 C20.087,3.397 24.519,7.410 24.477,13.609 C24.436,19.609 20.169,23.834 13.865,23.834 Z"></path></svg> <svg data-abs="" data-transparent="" aria-hidden="true" role="img" id="rey-icon-close-64601de14bdff" class="rey-icon rey-icon-close icon-close" viewBox="0 0 110 110"><g stroke="none" stroke-width="1" fill="none" fill-rule="evenodd" stroke-linecap="square"><path d="M4.79541854,4.29541854 L104.945498,104.445498 L4.79541854,4.29541854 Z" stroke="currentColor" stroke-width="var(--stroke-width, 12px)"></path><path d="M4.79541854,104.704581 L104.945498,4.55450209 L4.79541854,104.704581 Z" stroke="currentColor" stroke-width="var(--stroke-width, 12px)"></path></g></symbol> 
        <symbol id="phone" viewBox="0 0 30 30"><path d="M3 6.5C3 14.5081 9.49187 21 17.5 21C18.166 21 18.8216 20.9551 19.4637 20.8682C20.3747 20.7448 21 19.9292 21 19.01V16.4415C21 15.5807 20.4491 14.8164 19.6325 14.5442L16.4841 13.4947C15.6836 13.2279 14.8252 13.699 14.6206 14.5177C14.3475 15.6102 12.987 15.987 12.1907 15.1907L8.80926 11.8093C8.01301 11.013 8.38984 9.65254 9.48229 9.37943C10.301 9.17476 10.7721 8.31644 10.5053 7.51586L9.45585 4.36754C9.18362 3.55086 8.41934 3 7.55848 3H4.99004C4.0708 3 3.25518 3.62533 3.13185 4.53627C3.0449 5.17845 3 5.83398 3 6.5Z" stroke="#323232" stroke-width="2" stroke-linejoin="round"/><path d="M15 9L20.5 3.5" stroke="#323232" stroke-width="2" stroke-linecap="round" stroke-linejoin="round"/><path d="M21 7L21 3.5V3.5C21 3.22386 20.7761 3 20.5 3V3L17 3" stroke="#323232" stroke-width="2" stroke-linecap="round" stroke-linejoin="round"/></symbol> 
    </defs>
</svg>
